<svg id="SvgjsSvg1001" width="288" height="288" xmlns="http://www.w3.org/2000/svg" version="1.1" xmlns:xlink="http://www.w3.org/1999/xlink" xmlns:svgjs="http://svgjs.com/svgjs"><defs id="SvgjsDefs1002"></defs><g id="SvgjsG1008" transform="matrix(0.916700005531311,0,0,0.916700005531311,11.995199203491211,11.995484352111816)"><svg xmlns="http://www.w3.org/2000/svg" enable-background="new 0 0 269.2 269.2" viewBox="0 0 269.2 269.2" width="288" height="288"><path fill="#000000" d="M269.2,109V61.6c0-17.1-13.9-31.1-31.1-31.1H31.1C13.9,30.6,0,44.5,0,61.6V109c0,17.1,13.9,31.1,31.1,31.1
		h207.1C255.3,140.1,269.2,126.1,269.2,109z M254.9,109c0,9.2-7.5,16.7-16.7,16.7H31.1c-9.2,0-16.7-7.5-16.7-16.7V61.6
		c0-9.2,7.5-16.7,16.7-16.7h207.1c9.2,0,16.7,7.5,16.7,16.7L254.9,109L254.9,109z" class="colorff9366 svgShape"></path><path fill="#000000" d="M226.5 78.4H42c-10.6 0-19.2 8.6-19.2 19.2 0 10.6 8.6 19.2 19.2 19.2h184.5c10.6 0 19.2-8.6 19.2-19.2C245.7 87.1 237.1 78.4 226.5 78.4zM226.5 102.5H42c-2.7 0-4.9-2.2-4.9-4.9s2.2-4.9 4.9-4.9h184.5c2.7 0 4.9 2.2 4.9 4.9S229.2 102.5 226.5 102.5zM156.3 70.2h19.1c4 0 7.2-3.2 7.2-7.2 0-4-3.2-7.2-7.2-7.2h-19.1c-4 0-7.2 3.2-7.2 7.2C149.1 67 152.4 70.2 156.3 70.2zM204.1 70.2h19.1c4 0 7.2-3.2 7.2-7.2 0-4-3.2-7.2-7.2-7.2h-19.1c-4 0-7.2 3.2-7.2 7.2C196.9 67 200.1 70.2 204.1 70.2z" class="colorff9366 svgShape"></path><path fill="#000000" d="M69.7 165.4c8.2-4.2 1-16.6-7.2-12.4-13.2 6.8-18.8 17.9-13.9 32.3 4.8 14.1 20.8 29.6 2.6 40-8 4.6-.8 17 7.2 12.4 13.3-7.6 19.2-19 14.3-33.9C68.4 190.4 51.8 174.6 69.7 165.4zM146.2 165.4c8.2-4.2 1-16.6-7.2-12.4-13.2 6.8-18.8 17.9-13.9 32.3 4.8 14.1 20.8 29.6 2.6 40-8 4.6-.8 17 7.2 12.4 13.3-7.6 19.2-19 14.3-33.9C144.8 190.4 128.3 174.6 146.2 165.4zM222.7 165.4c8.2-4.2 1-16.6-7.2-12.4-13.2 6.8-18.8 17.9-13.9 32.3 4.8 14.1 20.8 29.6 2.6 40-8 4.6-.8 17 7.2 12.4 13.3-7.6 19.2-19 14.3-33.9C221.3 190.4 204.8 174.6 222.7 165.4z" class="colorb3a16b svgShape"></path></svg></g></svg>