<?xml version="1.0" encoding="utf-8"?>
<!-- Generator: Adobe Illustrator 23.0.3, SVG Export Plug-In . SVG Version: 6.00 Build 0)  -->
<svg version="1.1" id="Icons" xmlns="http://www.w3.org/2000/svg" xmlns:xlink="http://www.w3.org/1999/xlink" x="0px" y="0px"
	 viewBox="0 0 32 32" style="enable-background:new 0 0 32 32;" xml:space="preserve">
<style type="text/css">
	.st0{fill:none;stroke:#000000;stroke-width:2;stroke-linecap:round;stroke-linejoin:round;stroke-miterlimit:10;}
</style>
<path class="st0" d="M24,12c0-4.7-4.1-8.5-8.9-7.9c-3.5,0.4-6.4,3.2-7,6.7c-0.4,2.6,0.5,5.1,2.1,6.8c1.2,1.2,1.8,2.8,1.8,4.5v0h8v0
	c0-1.6,0.6-3.3,1.7-4.4C23.1,16.1,24,14.2,24,12z"/>
<line class="st0" x1="20" y1="25" x2="12" y2="25"/>
<path class="st0" d="M19,25.5c0,1.7-1.3,3-3,3s-3-1.3-3-3"/>
<path class="st0" d="M18.5,15L16,22l-4-11l0,0c2.4,1.8,5.6,1.8,8,0l0,0"/>
</svg>
