<?xml version="1.0" encoding="UTF-8" standalone="no"?> 
<svg height="584pt" viewBox="-18 -99 584 584" width="584pt" xmlns="http://www.w3.org/2000/svg">
<path d="m486.25-5.417969h-425c-33.8125.039063-61.2109375 27.4375-61.25 61.25v112.5c.0390625 33.816407 27.4375 61.210938 61.25 61.25h425c33.8125-.039062 61.210938-27.433593 61.25-61.25v-112.5c-.039062-33.8125-27.4375-61.210937-61.25-61.25zm38.75 173.75c-.023438 21.394531-17.359375 38.726563-38.75 38.75h-425c-21.390625-.023437-38.726562-17.355469-38.75-38.75v-112.5c.023438-21.390625 17.359375-38.722656 38.75-38.75h425c21.390625.027344 38.726562 17.359375 38.75 38.75zm0 0"/>
<path d="m483.75 94.582031h-420c-6.210938 0-11.25 5.039063-11.25 11.25 0 6.210938 5.039062 11.25 11.25 11.25h420c6.210938 0 11.25-5.039062 11.25-11.25 0-6.210937-5.039062-11.25-11.25-11.25zm0 0"/>
<path d="m483.75 45.832031h-420c-6.210938 0-11.25 5.039063-11.25 11.25 0 6.210938 5.039062 11.25 11.25 11.25h420c6.210938 0 11.25-5.039062 11.25-11.25 0-6.210937-5.039062-11.25-11.25-11.25zm0 0"/>
<path d="m383.75 132.082031c-16.566406 0-30 13.433594-30 30 0 16.570313 13.433594 30 30 30s30-13.429687 30-30c-.019531-16.5625-13.4375-29.980469-30-30zm0 37.5c-4.140625 0-7.5-3.359375-7.5-7.5s3.359375-7.5 7.5-7.5 7.5 3.359375 7.5 7.5c-.003906 4.140625-3.359375 7.496094-7.5 7.5zm0 0"/>
<path d="m465 132.082031c-16.566406 0-30 13.433594-30 30 0 16.570313 13.433594 30 30 30s30-13.429687 30-30c-.019531-16.5625-13.4375-29.980469-30-30zm0 37.5c-4.140625 0-7.5-3.359375-7.5-7.5s3.359375-7.5 7.5-7.5 7.5 3.359375 7.5 7.5c-.003906 4.140625-3.359375 7.496094-7.5 7.5zm0 0"/>
<path d="m291.25 368.332031v-100c0-6.210937-5.039062-11.25-11.25-11.25s-11.25 5.039063-11.25 11.25v100c0 6.210938 5.039062 11.25 11.25 11.25s11.25-5.039062 11.25-11.25zm0 0"/>
<path d="m372.5 330.832031v-62.5c0-6.210937-5.039062-11.25-11.25-11.25s-11.25 5.039063-11.25 11.25v62.5c0 6.210938 5.039062 11.25 11.25 11.25s11.25-5.039062 11.25-11.25zm0 0"/>
<path d="m453.75 305.832031v-37.5c0-6.210937-5.039062-11.25-11.25-11.25s-11.25 5.039063-11.25 11.25v37.5c0 6.210938 5.039062 11.25 11.25 11.25s11.25-5.039062 11.25-11.25zm0 0"/>
<path d="m198.75 342.082031c6.210938 0 11.25-5.039062 11.25-11.25v-62.5c0-6.210937-5.039062-11.25-11.25-11.25s-11.25 5.039063-11.25 11.25v62.5c0 6.210938 5.039062 11.25 11.25 11.25zm0 0"/>
<path d="m128.75 305.832031v-37.5c0-6.210937-5.039062-11.25-11.25-11.25s-11.25 5.039063-11.25 11.25v37.5c0 6.210938 5.039062 11.25 11.25 11.25s11.25-5.039062 11.25-11.25zm0 0"/>
</svg>
